<svg xmlns="http://www.w3.org/2000/svg" version="1.1" xmlns:xlink="http://www.w3.org/1999/xlink" xmlns:svgjs="http://svgjs.com/svgjs" width="1080" height="781.2"><svg version="1.1" id="SvgjsSvg1000" xmlns="http://www.w3.org/2000/svg" xmlns:xlink="http://www.w3.org/1999/xlink" x="0px" y="0px" viewBox="0 0 1080 781.2" style="enable-background:new 0 0 1080 781.2;" xml:space="preserve">
<style type="text/css">
	.st0{fill:#1A232B;}
	.st1{fill:#FFFFFF;}
</style>
<g>
	<path class="st0" d="M1080,245.9L950.4,0H0v390.6v390.6h950.4L1080,535.2v-88l-116.5-56.6l116.5-56.6V245.9z M800.9,518.8H507.6
		v-30.6h293.3V518.8z M800.9,240.8H507.6v-30.6h293.3V240.8z"></path>
	<path class="st1" d="M931.7,31.1l117.2,222.5v60.9l-99,48.1l-57.5,28l57.5,28l99,48.1v60.9L931.7,750.1H31.1V390.6V31.1H931.7
		 M476.5,271.9h31.1h293.3h31.1v-31.1v-30.6v-31.1h-31.1H507.6h-31.1v31.1v30.6V271.9 M476.5,549.8h31.1h293.3h31.1v-31.1v-30.6
		v-31.1h-31.1H507.6h-31.1v31.1v30.6V549.8 M950.4,0H0v390.6v390.6h950.4L1080,535.2v-88l-116.5-56.6l116.5-56.6v-88L950.4,0
		L950.4,0z M507.6,240.8v-30.6h293.3v30.6H507.6L507.6,240.8z M507.6,518.8v-30.6h293.3v30.6H507.6L507.6,518.8z"></path>
</g>
</svg><style>@media (prefers-color-scheme: light) { :root { filter: none; } }
@media (prefers-color-scheme: dark) { :root { filter: none; } }
</style></svg>